<svg version="1.1" id="Layer_1" xmlns="http://www.w3.org/2000/svg" xmlns:xlink="http://www.w3.org/1999/xlink" x="0px" y="0px" viewBox="0 0 846.58 163.31" enable-background="new 0 0 846.58 163.31" xml:space="preserve" width="166" class="main-logo">
<g class="main-logo__symbol">
	<path d="M131.99,64.15c0,18.93-15.35,34.28-34.28,34.28S63.43,83.08,63.43,64.15V38.44c0-4.73,3.84-8.57,8.57-8.57   s8.57,3.84,8.57,8.57v25.71c0,9.47,7.68,17.14,17.14,17.14c9.47,0,17.14-7.67,17.14-17.14V38.44c0-4.73,3.84-8.57,8.57-8.57   c4.74,0,8.57,3.84,8.57,8.57V64.15z M80.58,132.7H63.44c-18.93,0-34.28-15.35-34.28-34.28V64.15c0-4.73,3.84-8.57,8.57-8.57   c4.74,0,8.57,3.84,8.57,8.57v34.28c0,9.47,7.68,17.14,17.14,17.14h17.14c4.73,0,8.57,3.84,8.57,8.57   C89.15,128.87,85.31,132.7,80.58,132.7 M114.85,4.34H20.59c-9.35,0-16.96,7.61-16.96,16.96v94.27c0,23.53,19.14,42.67,42.67,42.67   h68.56c23.53,0,42.67-19.14,42.67-42.67V47.01C157.52,23.48,138.38,4.34,114.85,4.34"></path>
</g>
<g class="main-logo__letters">
	<path d="M262.57,112.32v11.28c0,1.54-1.25,2.79-2.79,2.79h-46.17c-1.54,0-2.8-1.25-2.8-2.79V39.73c0-1.54,1.25-2.79,2.8-2.79     h12.05c1.54,0,2.79,1.25,2.79,2.79v69.79h31.33C261.32,109.52,262.57,110.77,262.57,112.32"></path>
	<path d="M316.76,88.44c-2.05-9.2-8.95-12.91-15.85-12.91c-8.82,0-14.82,4.73-16.74,12.91H316.76z M302.44,113.23     c5.21,0,9.57-1.78,12.53-4.45c1.2-1.08,2.93-1.27,4.33-0.47l6.96,4.01c2.08,1.2,2.52,4.05,0.88,5.8     c-6,6.44-14.5,10.06-24.95,10.06c-21.47,0-35.02-14.7-35.02-33.74s13.67-33.74,33.74-33.74c18.91,0,32.33,14.95,32.33,33.74     c0,1.19-0.06,2.32-0.17,3.43c-0.19,1.91-1.81,3.35-3.72,3.35h-44.92C286.72,109.65,293.75,113.23,302.44,113.23"></path>
	<path d="M392.79,94.44c0-10.73-7.54-18.02-17.76-18.02c-10.1,0-17.64,7.28-17.64,18.02c0,10.73,7.54,18.02,17.64,18.02     C385.25,112.46,392.79,105.18,392.79,94.44 M409.28,65.23v58.43c0,1.51-1.23,2.74-2.74,2.74h-11.01c-1.51,0-2.74-1.22-2.74-2.74     v-4.81c-4.6,5.75-11.5,9.33-20.83,9.33c-17,0-31.05-14.7-31.05-33.74s14.06-33.74,31.05-33.74c9.33,0,16.23,3.58,20.83,9.33v-4.8     c0-1.51,1.23-2.74,2.74-2.74h11.01C408.05,62.49,409.28,63.72,409.28,65.23"></path>
	<path d="M460.14,64.02v12.82c0,1.43-1.13,2.63-2.56,2.62c-8.02-0.03-16.87,4.28-16.87,16.39v27.9c0,1.46-1.18,2.64-2.64,2.64     h-11.21c-1.46,0-2.64-1.18-2.64-2.64V65.13c0-1.46,1.18-2.64,2.64-2.64h11.21c1.46,0,2.64,1.18,2.64,2.64v8.35     c2.91-7.6,9.43-11.29,16.42-12.1C458.72,61.2,460.14,62.42,460.14,64.02"></path>
	<path d="M529.4,87.16v36.55c0,1.48-1.2,2.68-2.68,2.68h-11.13c-1.48,0-2.68-1.2-2.68-2.68V89.2c0-8.69-5.24-13.16-12.65-13.16     c-8.05,0-14.06,4.73-14.06,15.85v31.82c0,1.48-1.2,2.68-2.68,2.68H472.4c-1.48,0-2.68-1.2-2.68-2.68V65.17     c0-1.48,1.2-2.68,2.68-2.68h11.13c1.48,0,2.68,1.2,2.68,2.68v4.48c3.83-5.75,10.48-8.95,19.04-8.95     C518.79,60.71,529.4,70.16,529.4,87.16"></path>
	<path d="M543.46,97.13V39.51c0-1.42,1.15-2.58,2.58-2.58h12.36c1.42,0,2.58,1.15,2.58,2.58v56.21c0,8.69,4.6,15.21,16.61,15.21     s16.61-6.52,16.61-15.21V39.51c0-1.42,1.15-2.58,2.58-2.58h12.48c1.42,0,2.58,1.15,2.58,2.58v57.61     c0,19.3-14.57,31.05-34.25,31.05C558.02,128.18,543.46,116.42,543.46,97.13"></path>
	<path d="M678.79,94.44c0-10.73-7.54-18.02-17.76-18.02c-10.1,0-17.64,7.28-17.64,18.02c0,10.73,7.54,18.02,17.64,18.02     C671.25,112.46,678.79,105.18,678.79,94.44 M695.27,94.44c0,19.04-14.06,33.74-31.18,33.74c-9.33,0-16.1-3.45-20.7-9.33v30.47     c0,1.45-1.18,2.63-2.63,2.63h-11.22c-1.45,0-2.63-1.18-2.63-2.63V65.11c0-1.44,1.17-2.62,2.62-2.62h11.25     c1.44,0,2.62,1.17,2.62,2.62v4.92c4.6-5.88,11.37-9.33,20.7-9.33C681.22,60.71,695.27,75.4,695.27,94.44"></path>
	<path d="M754.7,94.44c0-10.35-7.54-17.63-17.38-17.63c-9.71,0-17.25,7.28-17.25,17.63s7.54,17.64,17.25,17.64     C747.16,112.08,754.7,104.79,754.7,94.44 M703.58,94.44c0-19.04,14.95-33.74,33.74-33.74c18.78,0,33.86,14.7,33.86,33.74     s-15.08,33.74-33.86,33.74C718.53,128.18,703.58,113.48,703.58,94.44"></path>
	<path d="M842.49,87.16v36.54c0,1.49-1.21,2.69-2.69,2.69h-11.1c-1.49,0-2.69-1.21-2.69-2.69V89.2c0-8.69-5.24-13.16-12.65-13.16     c-8.05,0-14.06,4.73-14.06,15.85v31.81c0,1.49-1.21,2.69-2.69,2.69h-11.1c-1.49,0-2.69-1.21-2.69-2.69V65.19     c0-1.49,1.21-2.69,2.69-2.69h11.1c1.49,0,2.69,1.21,2.69,2.69v4.46c3.83-5.75,10.48-8.95,19.04-8.95     C831.88,60.71,842.49,70.16,842.49,87.16"></path>
</g>
</svg>