<svg id="SvgjsSvg1011" width="288" height="288" xmlns="http://www.w3.org/2000/svg" version="1.1" xmlns:xlink="http://www.w3.org/1999/xlink" xmlns:svgjs="http://svgjs.com/svgjs"><defs id="SvgjsDefs1012"></defs><g id="SvgjsG1013"><svg xmlns="http://www.w3.org/2000/svg" width="288" height="288" viewBox="0 0 20 20"><path d="M15 2h2a2 2 0 0 1 2 2v14a2 2 0 0 1-2 2H3a2 2 0 0 1-2-2V4c0-1.1.9-2 2-2h2V0h2v2h6V0h2v2zM3 6v12h14V6H3zm6 5V9h2v2h2v2h-2v2H9v-2H7v-2h2z" fill="#585858" class="color000 svgShape"></path></svg></g></svg>