<svg id="SvgjsSvg1046" width="288" height="288" xmlns="http://www.w3.org/2000/svg" version="1.1" xmlns:xlink="http://www.w3.org/1999/xlink" xmlns:svgjs="http://svgjs.com/svgjs"><defs id="SvgjsDefs1047"></defs><g id="SvgjsG1048"><svg xmlns="http://www.w3.org/2000/svg" enable-background="new 0 0 330 330" viewBox="0 0 330 330" width="288" height="288"><path d="M325.606,304.394L223.328,202.117c16.707-21.256,26.683-48.041,26.683-77.111C250.011,56.077,193.934,0,125.005,0
	C56.077,0,0,56.077,0,125.006C0,193.933,56.077,250.01,125.005,250.01c29.07,0,55.855-9.975,77.11-26.681l102.278,102.277
	C307.322,328.536,311.161,330,315,330s7.678-1.464,10.606-4.394C331.465,319.749,331.465,310.251,325.606,304.394z M30,125.006
	C30,72.619,72.619,30,125.005,30c52.387,0,95.006,42.619,95.006,95.005c0,52.386-42.619,95.004-95.006,95.004
	C72.619,220.01,30,177.391,30,125.006z" fill="#ffffff" class="color000 svgShape"></path></svg></g></svg>